<svg viewBox="0 0 512 512" xmlns="http://www.w3.org/2000/svg" fill-rule="evenodd" clip-rule="evenodd" stroke-linejoin="round" stroke-miterlimit="2"><path d="M490.817 467.023L271.132 27.68c-4.317-9.52-8.648-11.249-13.836-11.249-4.317 0-9.519 1.73-14.707 10.377-31.131 49.297-44.967 106.384-44.967 166.057 0 83.029 42.38 160.87 104.654 286.263 6.918 13.85 12.107 16.437 24.213 16.437h152.208c11.248 0 17.308-4.317 17.308-12.978 0-4.317-.872-6.918-5.188-15.565zM171.68 259.458c-17.308-25.942-22.497-27.672-26.814-27.672-4.33 0-6.918 1.73-14.707 17.295L20.33 468.752c-3.459 6.918-4.33 9.52-4.33 12.978 0 6.918 6.06 13.836 19.024 13.836h154.809c10.377 0 18.166-8.647 22.497-25.084 5.188-20.754 6.918-38.92 6.918-60.532 0-60.545-26.814-119.361-47.568-150.492z" fill="#1868db" fill-rule="nonzero"/></svg>