<svg fill="none" xmlns="http://www.w3.org/2000/svg" viewBox="0 0 60 25"><path d="M45.052 6.034H34.141a1.84 1.84 0 1 0 0 3.681H45.1c3.007 0 5.557 2.358 5.653 5.365.097 3.008-2.43 5.703-5.533 5.703h-5.534V14.31a1.84 1.84 0 0 0-3.681 0v8.313c0 1.023.83 1.853 1.852 1.853h7.387c5.04 0 9.143-4.054 9.227-9.07.084-5.162-4.223-9.396-9.396-9.396l-.024.024ZM9.3 6.046A9.21 9.21 0 0 0 3.68 7.899V2.353a1.84 1.84 0 1 0-3.681 0V22.66a1.84 1.84 0 0 0 3.681 0v-7.267c0-3.007 2.358-5.557 5.366-5.654 3.007-.096 5.702 2.43 5.702 5.534v7.387a1.84 1.84 0 1 0 3.681 0v-7.23c0-5.09-4.066-9.336-9.155-9.384H9.3ZM23.061.5a1.84 1.84 0 0 0-1.84 1.84v12.933c0 5.1 4.138 9.227 9.227 9.227a1.84 1.84 0 0 0 0-3.681 5.535 5.535 0 0 1-5.534-5.534V9.751h3.693a1.84 1.84 0 0 0 0-3.681h-3.669s-.024 0-.024-.024V2.353a1.84 1.84 0 0 0-1.84-1.841L23.06.5Z" fill="#fff"/><path d="M57.215 6.034a2.767 2.767 0 1 0 0-5.534 2.767 2.767 0 0 0 0 5.534Z" fill="#0CFFEA"/></svg>