<svg width="36" height="36" viewBox="4 0 32 32" fill="none" xmlns="http://www.w3.org/2000/svg">
<g filter="url(#filter0_d_101_4)">
<path d="M10.248 21.112C10.0347 21.112 9.864 21.064 9.736 20.968C9.608 20.872 9.53333 20.744 9.512 20.584C9.49067 20.424 9.52267 20.2427 9.608 20.04L13.944 10.312C14.0507 10.056 14.184 9.87467 14.344 9.768C14.5147 9.66133 14.7013 9.608 14.904 9.608C15.096 9.608 15.272 9.66133 15.432 9.768C15.6027 9.87467 15.7413 10.056 15.848 10.312L20.184 20.04C20.28 20.2427 20.3173 20.4293 20.296 20.6C20.2747 20.76 20.2053 20.888 20.088 20.984C19.9707 21.0693 19.8053 21.112 19.592 21.112C19.3573 21.112 19.1707 21.0533 19.032 20.936C18.8933 20.8187 18.7707 20.6373 18.664 20.392L17.544 17.8L18.296 18.248H11.48L12.216 17.8L11.112 20.392C11.0053 20.648 10.888 20.8347 10.76 20.952C10.632 21.0587 10.4613 21.112 10.248 21.112ZM14.872 11.56L12.456 17.288L12.056 16.904H17.704L17.336 17.288L14.904 11.56H14.872ZM22.9253 21.112C22.6586 21.112 22.4506 21.0373 22.3013 20.888C22.1626 20.7387 22.0933 20.5307 22.0933 20.264V10.568C22.0933 10.2907 22.1679 10.0827 22.3173 9.944C22.4666 9.79467 22.6746 9.72 22.9413 9.72H26.7653C27.9813 9.72 28.9199 10.024 29.5813 10.632C30.2426 11.2293 30.5733 12.072 30.5733 13.16C30.5733 14.2587 30.2426 15.112 29.5813 15.72C28.9199 16.3173 27.9813 16.616 26.7653 16.616H23.7573V20.264C23.7573 20.5307 23.6879 20.7387 23.5493 20.888C23.4106 21.0373 23.2026 21.112 22.9253 21.112ZM23.7573 15.288H26.5253C27.3253 15.288 27.9279 15.112 28.3333 14.76C28.7493 14.3973 28.9573 13.864 28.9573 13.16C28.9573 12.4667 28.7493 11.944 28.3333 11.592C27.9279 11.2293 27.3253 11.048 26.5253 11.048H23.7573V15.288Z" fill="white"/>
<circle cx="20" cy="16" r="15.5" stroke="white"/>
</g>
<defs>
<filter id="filter0_d_101_4" x="0" y="0" width="40" height="40" filterUnits="userSpaceOnUse" color-interpolation-filters="sRGB">
<feFlood flood-opacity="0" result="BackgroundImageFix"/>
<feColorMatrix in="SourceAlpha" type="matrix" values="0 0 0 0 0 0 0 0 0 0 0 0 0 0 0 0 0 0 127 0" result="hardAlpha"/>
<feOffset dy="4"/>
<feGaussianBlur stdDeviation="2"/>
<feComposite in2="hardAlpha" operator="out"/>
<feColorMatrix type="matrix" values="0 0 0 0 0 0 0 0 0 0 0 0 0 0 0 0 0 0 0.25 0"/>
<feBlend mode="normal" in2="BackgroundImageFix" result="effect1_dropShadow_101_4"/>
<feBlend mode="normal" in="SourceGraphic" in2="effect1_dropShadow_101_4" result="shape"/>
</filter>
</defs>
</svg>
